<svg width="40" height="40" viewBox="0 0 40 40" fill="none" xmlns="http://www.w3.org/2000/svg">
<g id="File text">
<path id="Icon" d="M23.3333 3.33331H9.99996C9.1159 3.33331 8.26806 3.6845 7.64294 4.30962C7.01782 4.93474 6.66663 5.78259 6.66663 6.66665V33.3333C6.66663 34.2174 7.01782 35.0652 7.64294 35.6903C8.26806 36.3155 9.1159 36.6666 9.99996 36.6666H30C30.884 36.6666 31.7319 36.3155 32.357 35.6903C32.9821 35.0652 33.3333 34.2174 33.3333 33.3333V13.3333M23.3333 3.33331L33.3333 13.3333M23.3333 3.33331L23.3333 13.3333H33.3333M26.6666 21.6666H13.3333M26.6666 28.3333H13.3333M16.6666 15H13.3333" stroke="#1E1E1E" stroke-width="3.5" stroke-linecap="round" stroke-linejoin="round"/>
</g>
</svg>
