<svg width="165" height="165" viewBox="0 0 165 165" fill="none" xmlns="http://www.w3.org/2000/svg">
<path d="M20.625 41.25L41.25 13.75H123.75L144.375 41.25M20.625 41.25V137.5C20.625 141.147 22.0737 144.644 24.6523 147.223C27.2309 149.801 30.7283 151.25 34.375 151.25H130.625C134.272 151.25 137.769 149.801 140.348 147.223C142.926 144.644 144.375 141.147 144.375 137.5V41.25M20.625 41.25H144.375M110 68.75C110 76.0435 107.103 83.0382 101.945 88.1954C96.7882 93.3527 89.7935 96.25 82.5 96.25C75.2065 96.25 68.2118 93.3527 63.0546 88.1954C57.8973 83.0382 55 76.0435 55 68.75" stroke="#1E1E1E" stroke-width="4" stroke-linecap="round" stroke-linejoin="round"/>
</svg>
